<svg width="128" height="128" viewBox="0 0 128 128" xmlns="http://www.w3.org/2000/svg">
  <defs>
    <linearGradient id="bgGradient" x1="0%" y1="0%" x2="100%" y2="100%">
      <stop offset="0%" style="stop-color:
#667eea;stop-opacity:1" />
      <stop offset="100%" style="stop-color:
#764ba2;stop-opacity:1" />
    </linearGradient>
    <linearGradient id="checkGradient" x1="0%" y1="0%" x2="100%" y2="100%">
      <stop offset="0%" style="stop-color:
#4ade80;stop-opacity:1" />
      <stop offset="100%" style="stop-color:
#22c55e;stop-opacity:1" />
    </linearGradient>
    <filter id="shadow" x="-20%" y="-20%" width="140%" height="140%">
      <dropShadow dx="2" dy="2" stdDeviation="3" flood-color="rgba(0,0,0,0.3)"/>
    </filter>
  </defs>

  <!-- Background circle -->
  <circle cx="64" cy="64" r="58" fill="url(#bgGradient)" filter="url(#shadow)"/>

  <!-- Chat bubble background -->
  <rect x="20" y="30" width="80" height="55" rx="12" ry="12" fill="white" opacity="0.95"/>

  <!-- Text lines representing prompt -->
  <rect x="28" y="40" width="50" height="3" rx="1.5" fill="
#374151"/>
  <rect x="28" y="48" width="64" height="3" rx="1.5" fill="
#374151"/>
  <rect x="28" y="56" width="45" height="3" rx="1.5" fill="
#374151"/>

  <!-- Score display -->
  <rect x="28" y="65" width="25" height="12" rx="6" fill="
#f3f4f6"/>
  <text x="40.5" y="74" font-family="system-ui, -apple-system, sans-serif" font-size="8" font-weight="bold" text-anchor="middle" fill="
#374151">85</text>

  <!-- Check mark -->
  <circle cx="85" cy="71" r="8" fill="url(#checkGradient)"/>
  <path d="M81 71 L84 74 L89 67" stroke="white" stroke-width="2" stroke-linecap="round" stroke-linejoin="round" fill="none"/>

  <!-- Sparkle elements -->
  <g fill="
#fbbf24" opacity="0.8">
    <path d="M105 25 L107 30 L112 28 L107 32 L105 37 L103 32 L98 28 L103 30 Z"/>
    <path d="M25 100 L26 103 L29 102 L26 105 L25 108 L24 105 L21 102 L24 103 Z"/>
  </g>
</svg>
